<svg id="Small" xmlns="http://www.w3.org/2000/svg" viewBox="0 0 712.81 712.81"><defs><style>.cls-1,.cls-2{fill:none;stroke:#010101;}.cls-1,.cls-2,.cls-3{stroke-miterlimit:10;}.cls-1{stroke-width:18px;}.cls-2,.cls-3{stroke-width:8px;}.cls-3{fill:#010101;stroke:#fff;}</style></defs><title>logo</title><circle class="cls-1" cx="356.4" cy="356.4" r="347.4"/><g id="Layer_3" data-name="Layer 3"><path class="cls-2" d="M666.88,680.61h35a8.15,8.15,0,0,1,8.14,8.14v35a8.14,8.14,0,0,1-8.14,8.14h-35a8.14,8.14,0,0,1-8.14-8.14v-35A8.15,8.15,0,0,1,666.88,680.61Z" transform="translate(-183.6 -183.6)"/><path class="cls-3" d="M654.29,669.89h34.94a8.14,8.14,0,0,1,8.14,8.14v35a8.14,8.14,0,0,1-8.14,8.14H654.29a8.14,8.14,0,0,1-8.14-8.14V678A8.14,8.14,0,0,1,654.29,669.89Z" transform="translate(-183.6 -183.6)"/><g id="Layer_4" data-name="Layer 4"><path class="cls-2" d="M485.9,603.18v97.36a8,8,0,0,1-8,8.05H442.73a8,8,0,0,1-8.05-8.05V376.87a8,8,0,0,1,8.05-8.05h35.13a8,8,0,0,1,8,8.05v79.76c0,8.45,11.35,11.19,15.21,3.68l44.77-87.12a8,8,0,0,1,7.15-4.37h36.79A8,8,0,0,1,597,380.49l-62.51,124a8.07,8.07,0,0,0-.26,6.66l76,186.33a8,8,0,0,1-7.45,11.09H560.14a8.06,8.06,0,0,1-7.5-5.13l-45-115.58a8,8,0,0,0-14.7-.66l-6.15,12.38A8,8,0,0,0,485.9,603.18Z" transform="translate(-183.6 -183.6)"/><path class="cls-3" d="M462.31,594.46v97.36a8.05,8.05,0,0,1-8.05,8H419.13a8.06,8.06,0,0,1-8.05-8V368.15a8.05,8.05,0,0,1,8.05-8h35.13a8,8,0,0,1,8.05,8v79.76c0,8.44,11.35,11.19,15.2,3.68l44.77-87.12a8.05,8.05,0,0,1,7.16-4.37h36.78a8,8,0,0,1,7.19,11.67l-62.51,124a8,8,0,0,0-.26,6.66l76.05,186.33a8.05,8.05,0,0,1-7.45,11.09H536.55a8,8,0,0,1-7.5-5.13L484,579.16a8.05,8.05,0,0,0-14.71-.66l-6.15,12.38A8.08,8.08,0,0,0,462.31,594.46Z" transform="translate(-183.6 -183.6)"/></g></g></svg>